<svg width="30" height="30" viewBox="0 0 30 30" fill="none" xmlns="http://www.w3.org/2000/svg">
<g clip-path="url(#clip0_7_38)">
<path d="M29 1H1V29H29V1Z" fill="white"/>
<path d="M13.25 19C13.1515 19.0001 13.0539 18.9819 12.9629 18.9464C12.8719 18.911 12.7893 18.8589 12.7197 18.7932L9.21969 15.4993C9.07903 15.3669 9.00001 15.1874 9 15.0002C8.99999 14.8129 9.07901 14.6334 9.21966 14.501C9.36032 14.3686 9.55108 14.2942 9.75 14.2942C9.94892 14.2942 10.1397 14.3686 10.2804 14.5009L13.25 17.2958L19.7197 11.2068C19.8603 11.0744 20.0511 11 20.25 11C20.4489 11 20.6397 11.0744 20.7803 11.2068C20.921 11.3391 21 11.5187 21 11.7059C21 11.8931 20.921 12.0727 20.7803 12.2051L13.7803 18.7932C13.7108 18.8589 13.6281 18.911 13.5371 18.9464C13.4461 18.9819 13.3485 19.0001 13.25 19Z" fill="#720B6B"/>
<path d="M29 1H1V29H29V1Z" stroke="#720B6B" stroke-width="2"/>
</g>
<defs>
<clipPath id="clip0_7_38">
<rect width="30" height="30" fill="white"/>
</clipPath>
</defs>
</svg>
